:SAMPLES-PER-SECOND 30
:FULLY-SPECIFIED
:DEGREES
116
root  5.26811 40.096 3.02357 147.817 -86.1102 -148.591
RightUpLeg  0.0516274 -7.88065 -7.52766
RightLeg  0.32011 -1.58496 -0.435404
RightFoot  4.13265 -1.66399 12.4125
RightToes  1.16414e-010 0 -3.6325e-017
Spine  4.06633 -1.7252 -0.520273
Spine1  7.83027 -2.34804 2.00457
HEad  -6.74804 -10.3151 -0.201187
LeftShoulder1  1.6808 -4.26136 -14.7881
LeftArm  11.3727 19.9507 -57.3471
LeftForeArm  -5.96907 -22.8526 -5.40469
LeftHand  -0.528894 0.308325 12.1327
RightShoulder  1.48781 2.42452 18.6435
RightArm  15.8798 -21.5182 51.2351
RightForeArm  4.86681 23.6931 4.82063
RightHand  -0.618367 0.311072 -12.6547
LeftUpLeg  3.94971 12.3273 14.3835
LeftLeg  2.09896 8.29517 1.9696
LeftFoot  0.202517 1.66419 -16.3832
LeftToes  7.09373e-011 9.9627e-011 8.96859e-012
117
root  5.27503 40.0958 3.0061 146.166 -86.2451 -146.926
RightUpLeg  0.0371857 -7.83709 -7.46446
RightLeg  0.395578 -1.80818 -0.468676
RightFoot  4.07438 -1.65928 12.4222
RightToes  1.16414e-010 0 -3.6325e-017
Spine  4.02614 -1.69542 -0.593446
Spine1  7.99866 -2.3545 2.13826
HEad  -6.43622 -10.4515 -0.0864021
LeftShoulder1  1.69974 -4.30398 -14.9248
LeftArm  11.3166 19.9367 -57.2667
LeftForeArm  -5.84952 -22.6772 -5.4404
LeftHand  -0.55065 0.0876609 12.123
RightShoulder  1.47532 2.3973 18.5399
RightArm  15.0863 -21.3537 51.3606
RightForeArm  5.32901 24.1929 4.89897
RightHand  -0.592722 0.0277032 -12.742
LeftUpLeg  3.86994 12.3545 14.4334
LeftLeg  2.0984 8.1098 1.95393
LeftFoot  0.213877 1.66373 -16.3635
LeftToes  7.09373e-011 9.9627e-011 8.96859e-012
118
root  5.28009 40.0965 2.98866 145.021 -86.3598 -145.729
RightUpLeg  -0.0499411 -7.78706 -7.41115
RightLeg  0.502022 -1.99493 -0.519303
RightFoot  4.04038 -1.65965 12.4508
RightToes  1.16414e-010 0 -3.6325e-017
Spine  3.98248 -1.67088 -0.681158
Spine1  8.06847 -2.36001 2.26953
HEad  -6.18822 -10.5538 -0.0166878
LeftShoulder1  1.69803 -4.27298 -14.9957
LeftArm  11.2387 19.9943 -57.2684
LeftForeArm  -5.78478 -22.5337 -5.47891
LeftHand  -0.539384 0.150258 12.0121
RightShoulder  1.47702 2.4317 18.4133
RightArm  14.3687 -21.1725 51.4907
RightForeArm  5.86251 24.5578 4.95242
RightHand  -0.616328 0.144274 -12.9765
LeftUpLeg  3.7729 12.3231 14.4276
LeftLeg  2.05658 8.03065 1.97244
LeftFoot  0.294643 1.67885 -16.4009
LeftToes  7.09373e-011 9.9627e-011 8.96859e-012
119
root  5.28062 40.0952 2.96918 143.737 -86.489 -144.403
RightUpLeg  -0.0944996 -7.75148 -7.3713
RightLeg  0.572428 -2.17268 -0.557564
RightFoot  3.97255 -1.65479 12.467
RightToes  1.16414e-010 0 -3.6325e-017
Spine  3.89776 -1.66152 -0.73913
Spine1  8.20602 -2.36959 2.35225
HEad  -6.15277 -10.6437 0.0205515
LeftShoulder1  1.68293 -4.18767 -15.0454
LeftArm  11.2046 20.0152 -57.3024
LeftForeArm  -5.89745 -22.39 -5.53335
LeftHand  -0.51065 0.378311 11.8732
RightShoulder  1.47725 2.46038 18.2869
RightArm  13.7809 -20.9031 51.5902
RightForeArm  6.54577 24.8804 4.98778
RightHand  -0.672609 0.602469 -13.1094
LeftUpLeg  3.66834 12.2656 14.4049
LeftLeg  2.04589 7.95616 2.02047
LeftFoot  0.352855 1.69227 -16.4518
LeftToes  7.09373e-011 9.9627e-011 8.96859e-012
120
root  5.27547 40.0908 2.94792 141.837 -86.6207 -142.485
RightUpLeg  -0.0848131 -7.72255 -7.31951
RightLeg  0.640193 -2.37929 -0.579369
RightFoot  3.85282 -1.64415 12.4806
RightToes  1.16414e-010 0 -3.6325e-017
Spine  3.74868 -1.64297 -0.670352
Spine1  8.46618 -2.33563 2.28578
HEad  -6.05208 -10.8212 0.0767187
LeftShoulder1  1.6761 -4.14336 -15.0862
LeftArm  11.1822 19.9898 -57.3188
LeftForeArm  -5.96017 -22.2435 -5.59154
LeftHand  -0.507334 0.405011 11.8564
RightShoulder  1.46341 2.4183 18.2249
RightArm  13.2229 -20.6173 51.6022
RightForeArm  7.155 25.3565 5.06142
RightHand  -0.70082 0.844922 -13.1411
LeftUpLeg  3.58491 12.2294 14.4138
LeftLeg  2.06408 7.82913 2.06853
LeftFoot  0.332927 1.69039 -16.4605
LeftToes  7.09373e-011 9.9627e-011 8.96859e-012
121
root  5.26577 40.0898 2.92878 139.861 -86.724 -140.505
RightUpLeg  -0.078631 -7.71595 -7.27494
RightLeg  0.746329 -2.54244 -0.579958
RightFoot  3.76658 -1.63607 12.4875
RightToes  1.16414e-010 0 -3.6325e-017
Spine  3.63261 -1.58675 -0.482951
Spine1  8.63443 -2.2278 2.09839
HEad  -5.76794 -11.0644 0.094266
LeftShoulder1  1.68567 -4.17023 -15.1388
LeftArm  11.1538 20.0298 -57.2884
LeftForeArm  -5.74027 -22.1352 -5.62373
LeftHand  -0.532856 0.203895 11.9859
RightShoulder  1.44529 2.33605 18.267
RightArm  12.7628 -20.4386 51.4759
RightForeArm  7.44713 25.8903 5.1654
RightHand  -0.697686 0.755855 -13.2653
LeftUpLeg  3.55853 12.1964 14.4382
LeftLeg  2.04536 7.71949 2.116
LeftFoot  0.342256 1.694 -16.4825
LeftToes  7.09373e-011 9.9627e-011 8.96859e-012
122
root  5.2534 40.093 2.91081 137.896 -86.8281 -138.541
RightUpLeg  -0.0565678 -7.74253 -7.25956
RightLeg  0.817297 -2.64705 -0.55294
RightFoot  3.72934 -1.62982 12.4698
RightToes  1.16414e-010 0 -3.6325e-017
Spine  3.59659 -1.52065 -0.337985
Spine1  8.63198 -2.12453 1.98742
HEad  -5.60582 -11.2287 0.0193401
LeftShoulder1  1.69462 -4.17192 -15.2613
LeftArm  11.0793 20.1244 -57.2124
LeftForeArm  -5.39241 -22.0385 -5.64685
LeftHand  -0.548133 0.0920993 12.078
RightShoulder  1.43765 2.29344 18.3219
RightArm  12.4232 -20.3412 51.2977
RightForeArm  7.56715 26.215 5.23233
RightHand  -0.703594 0.701043 -13.4907
LeftUpLeg  3.55814 12.1561 14.4591
LeftLeg  1.99722 7.61858 2.16457
LeftFoot  0.419248 1.71403 -16.5706
LeftToes  7.09373e-011 9.9627e-011 8.96859e-012
123
root  5.23963 40.0916 2.88691 134.422 -86.9889 -135.041
RightUpLeg  -0.00865172 -7.73439 -7.20874
RightLeg  0.843228 -2.88505 -0.547751
RightFoot  3.61911 -1.61799 12.4672
RightToes  1.16414e-010 0 -3.6325e-017
Spine  3.53872 -1.50863 -0.293526
Spine1  8.61837 -2.114 2.00518
HEad  -5.31254 -11.2855 -0.0456156
LeftShoulder1  1.68398 -4.07984 -15.4004
LeftArm  10.7938 20.1522 -57.1654
LeftForeArm  -5.21887 -21.8428 -5.72735
LeftHand  -0.534123 0.16942 11.9372
RightShoulder  1.44225 2.3198 18.2855
RightArm  12.0593 -20.2322 51.239
RightForeArm  7.72016 26.2694 5.23648
RightHand  -0.721855 0.796913 -13.6307
LeftUpLeg  3.48036 12.1511 14.5088
LeftLeg  1.98714 7.38093 2.19008
LeftFoot  0.425307 1.72242 -16.6424
LeftToes  7.09373e-011 9.9627e-011 8.96859e-012
124
root  5.22332 40.0858 2.85362 128.362 -87.197 -128.921
RightUpLeg  -0.00588675 -7.63823 -7.07348
RightLeg  0.975389 -3.35728 -0.625678
RightFoot  3.40523 -1.60264 12.5202
RightToes  1.16414e-010 0 -3.6325e-017
Spine  3.4285 -1.55163 -0.222884
Spine1  8.58984 -2.14714 1.96386
HEad  -3.87305 -11.3163 -0.00814103
LeftShoulder1  1.66212 -3.97635 -15.4162
LeftArm  10.2323 20.1421 -57.2086
LeftForeArm  -5.17708 -21.55 -5.86973
LeftHand  -0.517318 0.186968 11.6028
RightShoulder  1.45183 2.3704 18.2301
RightArm  11.774 -20.1172 51.2977
RightForeArm  7.69851 26.1174 5.20326
RightHand  -0.725946 0.838247 -13.6192
LeftUpLeg  3.3316 12.1751 14.5919
LeftLeg  1.96377 6.99787 2.19284
LeftFoot  0.378027 1.71482 -16.6338
LeftToes  7.09373e-011 9.9627e-011 8.96859e-012
